<?xml version="1.0" encoding="UTF-8" standalone="no"?>
<!DOCTYPE svg PUBLIC "-//W3C//DTD SVG 1.1//EN" "http://www.w3.org/Graphics/SVG/1.1/DTD/svg11.dtd">
<svg width="100%" height="100%" viewBox="0 0 344 306" version="1.1" xmlns="http://www.w3.org/2000/svg" xmlns:xlink="http://www.w3.org/1999/xlink" xml:space="preserve" xmlns:serif="http://www.serif.com/" style="fill-rule:evenodd;clip-rule:evenodd;stroke-miterlimit:10;">
    <rect x="168.017" y="120.306" width="6.777" height="133.572" style="fill:white;stroke:black;stroke-width:1px;"/>
    <g transform="matrix(0.8697,-0.4936,0.4936,0.8697,-13.085,124.758)">
        <rect x="162.951" y="83.772" width="133.572" height="6.777" style="fill:white;stroke:black;stroke-width:1px;"/>
    </g>
    <g transform="matrix(0.4969,-0.8678,0.8678,0.4969,-18.2066,142.417)">
        <rect x="110.335" y="20.065" width="6.777" height="133.692" style="fill:white;stroke:black;stroke-width:1px;"/>
    </g>
    <path d="M214.837,127.079L178.642,163.274C174.773,167.143 168.501,167.143 164.633,163.274L128.438,127.079C124.569,123.21 124.569,116.938 128.438,113.07L164.633,76.875C168.502,73.006 174.774,73.006 178.642,76.875L214.837,113.07C218.705,116.938 218.705,123.21 214.837,127.079Z" style="fill:white;fill-rule:nonzero;stroke:black;stroke-width:1px;"/>
    <path d="M153.46,142.074L171.637,91.074L189.815,142.074L153.46,142.074Z" style="fill:rgb(255,68,43);fill-rule:nonzero;stroke:black;stroke-width:1px;"/>
    <g opacity="0.8">
        <g transform="matrix(0.7091,-0.7051,0.7051,0.7091,48.7216,221.221)">
            <ellipse cx="292.45" cy="51.567" rx="50.993" ry="51.004" style="fill:rgb(78,195,232);"/>
        </g>
    </g>
    <path d="M300.322,42.677C295.948,38.293 288.849,38.284 284.464,42.658C280.08,47.032 280.071,54.131 284.445,58.516C288.81,62.891 295.892,62.91 300.28,58.558C304.677,54.223 304.726,47.144 300.391,42.747C300.368,42.723 300.345,42.7 300.322,42.677Z" style="fill:white;fill-rule:nonzero;stroke:black;stroke-width:1px;"/>
    <g opacity="0.8">
        <g transform="matrix(0.7051,-0.7091,0.7091,0.7051,-21.1175,51.1935)">
            <ellipse cx="50.996" cy="50.988" rx="50.993" ry="51.004" style="fill:rgb(78,195,232);"/>
        </g>
    </g>
    <path d="M58.914,43.059C63.298,47.433 63.307,54.532 58.933,58.917C54.559,63.301 47.46,63.31 43.075,58.936C38.7,54.571 38.681,47.489 43.033,43.101C47.368,38.704 54.447,38.655 58.844,42.99C58.868,43.013 58.891,43.036 58.914,43.059Z" style="fill:white;fill-rule:nonzero;stroke:black;stroke-width:1px;"/>
    <g opacity="0.8">
        <g transform="matrix(0.7091,-0.7051,0.7051,0.7091,-129.854,194.97)">
            <ellipse cx="171.349" cy="254.85" rx="50.993" ry="51.004" style="fill:rgb(78,195,232);"/>
        </g>
    </g>
    <path d="M179.221,245.961C174.847,241.577 167.748,241.568 163.363,245.942C158.979,250.316 158.97,257.415 163.344,261.8C167.709,266.175 174.791,266.194 179.179,261.842C183.576,257.507 183.625,250.428 179.29,246.031C179.267,246.007 179.244,245.984 179.221,245.961Z" style="fill:white;fill-rule:nonzero;stroke:black;stroke-width:1px;"/>
    <g transform="matrix(1.22198,0,0,1.22198,-66.9746,-59.3958)">
        <ellipse cx="201.018" cy="166.804" rx="100.703" ry="100.774" style="fill:rgb(230,100,100);fill-opacity:0.71;"/>
    </g>
</svg>
